ply
format ascii 1.0
comment Created by Blender 2.66 (sub 1) - www.blender.org, source file: '1201.blend'
element vertex 192
property float x
property float y
property float z
property float nx
property float ny
property float nz
property float s
property float t
element face 48
property list uchar uint vertex_indices
end_header
0.000000 3.717162 -1.000000 0.098015 0.995163 0.006608 0.911535 0.680271
0.000000 3.620200 13.602978 0.098015 0.995163 0.006608 0.124961 0.675240
0.176174 3.602849 13.602978 0.098015 0.995163 0.006608 0.124961 0.674340
0.195090 3.697947 -1.000000 0.098015 0.995163 0.006608 0.911535 0.679274
0.195090 3.697947 -1.000000 0.290278 0.956920 0.006608 0.911535 0.679274
0.176174 3.602849 13.602978 0.290278 0.956920 0.006608 0.124961 0.674340
0.345578 3.551461 13.602978 0.290278 0.956920 0.006608 0.124961 0.671674
0.382683 3.641041 -1.000000 0.290278 0.956920 0.006608 0.911535 0.676321
0.382683 3.641041 -1.000000 0.471386 0.881902 0.006608 0.911535 0.676321
0.345578 3.551461 13.602978 0.471386 0.881902 0.006608 0.124961 0.671674
0.501702 3.468011 13.602978 0.471386 0.881902 0.006608 0.124961 0.667345
0.555570 3.548631 -1.000000 0.471386 0.881902 0.006608 0.911535 0.671527
0.555570 3.548631 -1.000000 0.634380 0.772994 0.006608 0.911535 0.671527
0.501702 3.468011 13.602978 0.634380 0.772994 0.006608 0.124961 0.667345
0.638545 3.355706 13.602978 0.634380 0.772994 0.006608 0.124961 0.661518
0.707107 3.424269 -1.000000 0.634380 0.772994 0.006608 0.911535 0.665075
0.707107 3.424269 -1.000000 0.772994 0.634379 0.006608 0.911535 0.665075
0.638545 3.355706 13.602978 0.772994 0.634379 0.006608 0.124961 0.661518
0.750850 3.218863 13.602978 0.772994 0.634379 0.006608 0.124961 0.654419
0.831470 3.272732 -1.000000 0.772994 0.634379 0.006608 0.911535 0.657214
0.831470 3.272732 -1.000000 0.881902 0.471386 0.006608 0.911535 0.657214
0.750850 3.218863 13.602978 0.881902 0.471386 0.006608 0.124961 0.654419
0.834300 3.062739 13.602978 0.881902 0.471386 0.006608 0.124961 0.646319
0.923880 3.099845 -1.000000 0.881902 0.471386 0.006608 0.911535 0.648244
0.923880 3.099845 -1.000000 0.956919 0.290278 0.006608 0.911535 0.648244
0.834300 3.062739 13.602978 0.956919 0.290278 0.006608 0.124961 0.646319
0.885688 2.893335 13.602978 0.956919 0.290278 0.006608 0.124961 0.637530
0.980785 2.912252 -1.000000 0.956919 0.290278 0.006608 0.911535 0.638512
0.980785 2.912252 -1.000000 0.995163 0.098015 0.006608 0.911535 0.638512
0.885688 2.893335 13.602978 0.995163 0.098015 0.006608 0.124961 0.637530
0.903039 2.717161 13.602978 0.995163 0.098015 0.006608 0.124961 0.628390
1.000000 2.717162 -1.000000 0.995163 0.098015 0.006608 0.911535 0.628390
1.000000 2.717162 -1.000000 0.995163 -0.098015 0.006608 0.911535 0.628390
0.903039 2.717161 13.602978 0.995163 -0.098015 0.006608 0.124961 0.628390
0.885688 2.540987 13.602978 0.995163 -0.098015 0.006608 0.124961 0.619251
0.980785 2.522072 -1.000000 0.995163 -0.098015 0.006608 0.911535 0.618269
0.980785 2.522072 -1.000000 0.956919 -0.290279 0.006608 0.911535 0.618269
0.885688 2.540987 13.602978 0.956919 -0.290279 0.006608 0.124961 0.619251
0.834300 2.371583 13.602978 0.956919 -0.290279 0.006608 0.124961 0.610462
0.923880 2.334479 -1.000000 0.956919 -0.290279 0.006608 0.911535 0.608537
0.923880 2.334479 -1.000000 0.881902 -0.471386 0.006608 0.911535 0.608537
0.834300 2.371583 13.602978 0.881902 -0.471386 0.006608 0.124961 0.610462
0.750850 2.215459 13.602978 0.881902 -0.471386 0.006608 0.124961 0.602362
0.831470 2.161592 -1.000000 0.881902 -0.471386 0.006608 0.911535 0.599567
0.831470 2.161592 -1.000000 0.772994 -0.634379 0.006608 0.911535 0.599567
0.750850 2.215459 13.602978 0.772994 -0.634379 0.006608 0.124961 0.602362
0.638545 2.078616 13.602978 0.772994 -0.634379 0.006608 0.124961 0.595263
0.707107 2.010055 -1.000000 0.772994 -0.634379 0.006608 0.911535 0.591706
0.707107 2.010055 -1.000000 0.634380 -0.772993 0.006608 0.911535 0.591706
0.638545 2.078616 13.602978 0.634380 -0.772993 0.006608 0.124961 0.595263
0.501702 1.966311 13.602978 0.634380 -0.772993 0.006608 0.124961 0.589436
0.555570 1.885692 -1.000000 0.634380 -0.772993 0.006608 0.911535 0.585254
0.555570 1.885692 -1.000000 0.471386 -0.881902 0.006608 0.911535 0.585254
0.501702 1.966311 13.602978 0.471386 -0.881902 0.006608 0.124961 0.589436
0.345578 1.882861 13.602978 0.471386 -0.881902 0.006608 0.124961 0.585107
0.382683 1.793282 -1.000000 0.471386 -0.881902 0.006608 0.911535 0.580459
0.382683 1.793282 -1.000000 0.290278 -0.956920 0.006608 0.911535 0.580459
0.345578 1.882861 13.602978 0.290278 -0.956920 0.006608 0.124961 0.585107
0.176174 1.831473 13.602978 0.290278 -0.956920 0.006608 0.124961 0.582441
0.195090 1.736377 -1.000000 0.290278 -0.956920 0.006608 0.911535 0.577507
0.195090 1.736377 -1.000000 0.098015 -0.995163 0.006608 0.911535 0.577507
0.176174 1.831473 13.602978 0.098015 -0.995163 0.006608 0.124961 0.582441
-0.000000 1.814121 13.602978 0.098015 -0.995163 0.006608 0.124961 0.581541
-0.000000 1.717162 -1.000000 0.098015 -0.995163 0.006608 0.911535 0.576510
0.834300 3.062739 13.602978 0.875304 0.467860 0.122267 0.124961 0.646319
0.750850 3.218863 13.602978 0.875304 0.467860 0.122267 0.124961 0.654419
0.630785 3.138638 14.769498 0.875304 0.467860 0.122267 0.062127 0.650257
0.700891 3.007479 14.769498 0.875304 0.467860 0.122267 0.062127 0.643452
0.750850 3.218863 13.602978 0.767211 0.629634 0.122267 0.124961 0.654419
0.638545 3.355706 13.602978 0.767211 0.629634 0.122267 0.124961 0.661518
0.536439 3.253600 14.769498 0.767211 0.629634 0.122267 0.062127 0.656221
0.630785 3.138638 14.769498 0.767211 0.629634 0.122267 0.062127 0.650257
0.638545 3.355706 13.602978 0.629634 0.767210 0.122267 0.124961 0.661518
0.501702 3.468011 13.602978 0.629634 0.767210 0.122267 0.124961 0.667345
0.421477 3.347946 14.769498 0.629634 0.767210 0.122267 0.062127 0.661116
0.536439 3.253600 14.769498 0.629634 0.767210 0.122267 0.062127 0.656221
0.501702 3.468011 13.602978 0.467860 0.875305 0.122267 0.124961 0.667345
0.345578 3.551461 13.602978 0.467860 0.875305 0.122267 0.124961 0.671674
0.290319 3.418052 14.769498 0.467860 0.875305 0.122267 0.062127 0.664753
0.421477 3.347946 14.769498 0.467860 0.875305 0.122267 0.062127 0.661116
0.345578 3.551461 13.602978 0.288106 0.949761 0.122267 0.124961 0.671674
0.176174 3.602849 13.602978 0.288106 0.949761 0.122267 0.124961 0.674340
0.148003 3.461223 14.769498 0.288106 0.949761 0.122267 0.062127 0.666993
0.290319 3.418052 14.769498 0.288106 0.949761 0.122267 0.062127 0.664753
0.176174 3.602849 13.602978 0.097281 0.987718 0.122267 0.124961 0.674340
0.000000 3.620200 13.602978 0.097281 0.987718 0.122267 0.124961 0.675240
0.000000 3.475800 14.769498 0.097281 0.987718 0.122267 0.062127 0.667749
0.148003 3.461223 14.769498 0.097281 0.987718 0.122267 0.062127 0.666993
-0.000000 1.814121 13.602978 0.097281 -0.987718 0.122267 0.124961 0.581541
0.176174 1.831473 13.602978 0.097281 -0.987718 0.122267 0.124961 0.582441
0.148003 1.973099 14.769498 0.097281 -0.987718 0.122267 0.062127 0.589788
-0.000000 1.958522 14.769498 0.097281 -0.987718 0.122267 0.062127 0.589032
0.176174 1.831473 13.602978 0.288106 -0.949761 0.122267 0.124961 0.582441
0.345578 1.882861 13.602978 0.288106 -0.949761 0.122267 0.124961 0.585107
0.290318 2.016270 14.769498 0.288106 -0.949761 0.122267 0.062127 0.592028
0.148003 1.973099 14.769498 0.288106 -0.949761 0.122267 0.062127 0.589788
0.345578 1.882861 13.602978 0.467860 -0.875304 0.122267 0.124961 0.585107
0.501702 1.966311 13.602978 0.467860 -0.875304 0.122267 0.124961 0.589436
0.421477 2.086376 14.769498 0.467860 -0.875304 0.122267 0.062127 0.595665
0.290318 2.016270 14.769498 0.467860 -0.875304 0.122267 0.062127 0.592028
0.501702 1.966311 13.602978 0.629634 -0.767210 0.122267 0.124961 0.589436
0.638545 2.078616 13.602978 0.629634 -0.767210 0.122267 0.124961 0.595263
0.536439 2.180722 14.769498 0.629634 -0.767210 0.122267 0.062127 0.600560
0.421477 2.086376 14.769498 0.629634 -0.767210 0.122267 0.062127 0.595665
0.638545 2.078616 13.602978 0.767211 -0.629634 0.122267 0.124961 0.595263
0.750850 2.215459 13.602978 0.767211 -0.629634 0.122267 0.124961 0.602362
0.630785 2.295684 14.769498 0.767211 -0.629634 0.122267 0.062127 0.606524
0.536439 2.180722 14.769498 0.767211 -0.629634 0.122267 0.062127 0.600560
0.750850 2.215459 13.602978 0.875305 -0.467860 0.122267 0.124961 0.602362
0.834300 2.371583 13.602978 0.875305 -0.467860 0.122267 0.124961 0.610462
0.700891 2.426842 14.769498 0.875305 -0.467860 0.122267 0.062127 0.613329
0.630785 2.295684 14.769498 0.875305 -0.467860 0.122267 0.062127 0.606524
0.834300 2.371583 13.602978 0.949761 -0.288107 0.122267 0.124961 0.610462
0.885688 2.540987 13.602978 0.949761 -0.288107 0.122267 0.124961 0.619251
0.744062 2.569158 14.769498 0.949761 -0.288107 0.122267 0.062127 0.620712
0.700891 2.426842 14.769498 0.949761 -0.288107 0.122267 0.062127 0.613329
0.885688 2.540987 13.602978 0.987718 -0.097282 0.122267 0.124961 0.619251
0.903039 2.717161 13.602978 0.987718 -0.097282 0.122267 0.124961 0.628390
0.758639 2.717161 14.769498 0.987718 -0.097282 0.122267 0.062127 0.628390
0.744062 2.569158 14.769498 0.987718 -0.097282 0.122267 0.062127 0.620712
0.903039 2.717161 13.602978 0.987718 0.097282 0.122267 0.124961 0.628390
0.885688 2.893335 13.602978 0.987718 0.097282 0.122267 0.124961 0.637530
0.744062 2.865164 14.769498 0.987718 0.097282 0.122267 0.062127 0.636069
0.758639 2.717161 14.769498 0.987718 0.097282 0.122267 0.062127 0.628390
0.885688 2.893335 13.602978 0.949761 0.288107 0.122267 0.124961 0.637530
0.834300 3.062739 13.602978 0.949761 0.288107 0.122267 0.124961 0.646319
0.700891 3.007479 14.769498 0.949761 0.288107 0.122267 0.062127 0.643452
0.744062 2.865164 14.769498 0.949761 0.288107 0.122267 0.062127 0.636069
0.148003 1.973099 14.769498 0.276443 -0.911314 0.305098 0.062127 0.589788
0.290318 2.016270 14.769498 0.276443 -0.911314 0.305098 0.062127 0.592028
0.231144 2.159129 15.249828 0.276443 -0.911314 0.305098 0.036255 0.599440
0.117836 2.124758 15.249828 0.276443 -0.911314 0.305098 0.036255 0.597656
0.536439 2.180722 14.769498 0.736154 -0.604146 0.305098 0.062127 0.600560
0.630785 2.295684 14.769498 0.736154 -0.604146 0.305098 0.062127 0.606524
0.502215 2.381592 15.249828 0.736154 -0.604146 0.305098 0.036255 0.610981
0.427099 2.290062 15.249828 0.736154 -0.604146 0.305098 0.036255 0.606232
0.744062 2.569158 14.769498 0.947735 -0.093344 0.305098 0.062127 0.620712
0.758639 2.717161 14.769498 0.947735 -0.093344 0.305098 0.062127 0.628390
0.604009 2.717161 15.249828 0.947735 -0.093344 0.305098 0.036255 0.628390
0.592403 2.599325 15.249828 0.947735 -0.093344 0.305098 0.036255 0.622277
0.700891 3.007479 14.769498 0.839872 0.448921 0.305098 0.062127 0.643452
0.630785 3.138638 14.769498 0.839872 0.448921 0.305098 0.062127 0.650257
0.502215 3.052730 15.249828 0.839872 0.448921 0.305098 0.036255 0.645800
0.558032 2.948305 15.249828 0.839872 0.448921 0.305098 0.036255 0.640382
0.421477 3.347946 14.769498 0.448920 0.839872 0.305098 0.062127 0.661116
0.290319 3.418052 14.769498 0.448920 0.839872 0.305098 0.062127 0.664753
0.231144 3.275192 15.249828 0.448920 0.839872 0.305098 0.036255 0.657341
0.335570 3.219376 15.249828 0.448920 0.839872 0.305098 0.036255 0.654445
0.290318 2.016270 14.769498 0.448921 -0.839872 0.305098 0.062127 0.592028
0.421477 2.086376 14.769498 0.448921 -0.839872 0.305098 0.062127 0.595665
0.335570 2.214946 15.249828 0.448921 -0.839872 0.305098 0.036255 0.602335
0.231144 2.159129 15.249828 0.448921 -0.839872 0.305098 0.036255 0.599440
0.630785 2.295684 14.769498 0.839872 -0.448921 0.305098 0.062127 0.606524
0.700891 2.426842 14.769498 0.839872 -0.448921 0.305098 0.062127 0.613329
0.558032 2.486017 15.249828 0.839872 -0.448921 0.305098 0.036255 0.616399
0.502215 2.381592 15.249828 0.839872 -0.448921 0.305098 0.036255 0.610981
0.758639 2.717161 14.769498 0.947735 0.093344 0.305098 0.062127 0.628390
0.744062 2.865164 14.769498 0.947735 0.093344 0.305098 0.062127 0.636069
0.592403 2.834997 15.249828 0.947735 0.093344 0.305098 0.036255 0.634504
0.604009 2.717161 15.249828 0.947735 0.093344 0.305098 0.036255 0.628390
0.630785 3.138638 14.769498 0.736154 0.604146 0.305098 0.062127 0.650257
0.536439 3.253600 14.769498 0.736154 0.604146 0.305098 0.062127 0.656221
0.427099 3.144260 15.249828 0.736154 0.604146 0.305098 0.036255 0.650548
0.502215 3.052730 15.249828 0.736154 0.604146 0.305098 0.036255 0.645800
0.290319 3.418052 14.769498 0.276444 0.911314 0.305098 0.062127 0.664753
0.148003 3.461223 14.769498 0.276444 0.911314 0.305098 0.062127 0.666993
0.117836 3.309564 15.249828 0.276444 0.911314 0.305098 0.036255 0.659124
0.231144 3.275192 15.249828 0.276444 0.911314 0.305098 0.036255 0.657341
-0.000000 1.958522 14.769498 0.093344 -0.947735 0.305099 0.062127 0.589032
0.148003 1.973099 14.769498 0.093344 -0.947735 0.305099 0.062127 0.589788
0.117836 2.124758 15.249828 0.093344 -0.947735 0.305099 0.036255 0.597656
-0.000000 2.113152 15.249828 0.093344 -0.947735 0.305099 0.036255 0.597054
0.421477 2.086376 14.769498 0.604146 -0.736154 0.305098 0.062127 0.595665
0.536439 2.180722 14.769498 0.604146 -0.736154 0.305098 0.062127 0.600560
0.427099 2.290062 15.249828 0.604146 -0.736154 0.305098 0.036255 0.606232
0.335570 2.214946 15.249828 0.604146 -0.736154 0.305098 0.036255 0.602335
0.700891 2.426842 14.769498 0.911314 -0.276444 0.305098 0.062127 0.613329
0.744062 2.569158 14.769498 0.911314 -0.276444 0.305098 0.062127 0.620712
0.592403 2.599325 15.249828 0.911314 -0.276444 0.305098 0.036255 0.622277
0.558032 2.486017 15.249828 0.911314 -0.276444 0.305098 0.036255 0.616399
0.744062 2.865164 14.769498 0.911314 0.276444 0.305098 0.062127 0.636069
0.700891 3.007479 14.769498 0.911314 0.276444 0.305098 0.062127 0.643452
0.558032 2.948305 15.249828 0.911314 0.276444 0.305098 0.036255 0.640382
0.592403 2.834997 15.249828 0.911314 0.276444 0.305098 0.036255 0.634504
0.536439 3.253600 14.769498 0.604146 0.736154 0.305098 0.062127 0.656221
0.421477 3.347946 14.769498 0.604146 0.736154 0.305098 0.062127 0.661116
0.335570 3.219376 15.249828 0.604146 0.736154 0.305098 0.036255 0.654445
0.427099 3.144260 15.249828 0.604146 0.736154 0.305098 0.036255 0.650548
0.148003 3.461223 14.769498 0.093343 0.947735 0.305098 0.062127 0.666993
0.000000 3.475800 14.769498 0.093343 0.947735 0.305098 0.062127 0.667749
0.000000 3.321170 15.249828 0.093343 0.947735 0.305098 0.036255 0.659727
0.117836 3.309564 15.249828 0.093343 0.947735 0.305098 0.036255 0.659124
4 0 1 2 3
4 4 5 6 7
4 8 9 10 11
4 12 13 14 15
4 16 17 18 19
4 20 21 22 23
4 24 25 26 27
4 28 29 30 31
4 32 33 34 35
4 36 37 38 39
4 40 41 42 43
4 44 45 46 47
4 48 49 50 51
4 52 53 54 55
4 56 57 58 59
4 60 61 62 63
4 64 65 66 67
4 68 69 70 71
4 72 73 74 75
4 76 77 78 79
4 80 81 82 83
4 84 85 86 87
4 88 89 90 91
4 92 93 94 95
4 96 97 98 99
4 100 101 102 103
4 104 105 106 107
4 108 109 110 111
4 112 113 114 115
4 116 117 118 119
4 120 121 122 123
4 124 125 126 127
4 128 129 130 131
4 132 133 134 135
4 136 137 138 139
4 140 141 142 143
4 144 145 146 147
4 148 149 150 151
4 152 153 154 155
4 156 157 158 159
4 160 161 162 163
4 164 165 166 167
4 168 169 170 171
4 172 173 174 175
4 176 177 178 179
4 180 181 182 183
4 184 185 186 187
4 188 189 190 191
